<mxfile host="app.diagrams.net" agent="Mozilla/5.0 (X11; Linux x86_64) AppleWebKit/537.36 (KHTML, like Gecko) Chrome/125.0.0.0 Safari/537.36" version="24.8.3">
  <diagram name="Page-1" id="aaaa8250-4180-3840-79b5-4cada1eebb92">
    <mxGraphModel grid="1" page="1" gridSize="10" guides="1" tooltips="1" connect="1" arrows="1" fold="1" pageScale="1" pageWidth="850" pageHeight="1100" background="none" math="0" shadow="0">
      <root>
        <mxCell id="0" />
        <mxCell id="1" parent="0" />
        <mxCell id="g0c-RjGzhL_h2LVNaWrV-43" value="" style="verticalLabelPosition=bottom;html=1;verticalAlign=top;strokeWidth=1;align=center;outlineConnect=0;dashed=0;outlineConnect=0;shape=mxgraph.aws3d.spot2;fillColor=#dae8fc;strokeColor=#6c8ebf;aspect=fixed;opacity=50;" vertex="1" parent="1">
          <mxGeometry x="-360" y="550" width="2686.66" height="1560" as="geometry" />
        </mxCell>
        <mxCell id="g0c-RjGzhL_h2LVNaWrV-31" value="" style="group" connectable="0" vertex="1" parent="1">
          <mxGeometry x="1890" y="350" width="766.66" height="570" as="geometry" />
        </mxCell>
        <mxCell id="g0c-RjGzhL_h2LVNaWrV-45" value="" style="verticalLabelPosition=bottom;html=1;verticalAlign=top;strokeWidth=1;dashed=0;shape=mxgraph.aws3d.arrowSW;fillColor=#006600;aspect=fixed;rounded=1;shadow=0;comic=0;fontFamily=Verdana;fontSize=12;" vertex="1" parent="g0c-RjGzhL_h2LVNaWrV-31">
          <mxGeometry x="-660" y="23.26" width="532" height="304.21" as="geometry" />
        </mxCell>
        <mxCell id="g0c-RjGzhL_h2LVNaWrV-37" value="" style="verticalLabelPosition=bottom;html=1;verticalAlign=top;strokeWidth=1;align=center;outlineConnect=0;dashed=0;outlineConnect=0;shape=mxgraph.aws3d.spot2;fillColor=#fff2cc;strokeColor=#FF8000;aspect=fixed;opacity=20;" vertex="1" parent="g0c-RjGzhL_h2LVNaWrV-31">
          <mxGeometry x="-190" y="10" width="876.66" height="509.03" as="geometry" />
        </mxCell>
        <mxCell id="g0c-RjGzhL_h2LVNaWrV-66" value="&lt;font size=&quot;1&quot; style=&quot;&quot;&gt;&lt;b style=&quot;font-size: 28px;&quot;&gt;Bank2&lt;/b&gt;&lt;/font&gt;" style="text;html=1;align=center;verticalAlign=middle;whiteSpace=wrap;rounded=0;rotation=32;fontStyle=2;fontSize=26;horizontal=1;spacingTop=0;spacing=0;textShadow=0;labelBackgroundColor=none;labelBorderColor=none;" vertex="1" parent="g0c-RjGzhL_h2LVNaWrV-31">
          <mxGeometry x="241.30000000000018" y="68.89999999999998" width="64" height="32" as="geometry">
            <mxPoint as="offset" />
          </mxGeometry>
        </mxCell>
        <mxCell id="g0c-RjGzhL_h2LVNaWrV-22" value="" style="verticalLabelPosition=bottom;html=1;verticalAlign=top;strokeWidth=1;align=center;outlineConnect=0;dashed=0;outlineConnect=0;shape=mxgraph.aws3d.mobile_worker;aspect=fixed;strokeColor=none;fillColor=#777777;" vertex="1" parent="g0c-RjGzhL_h2LVNaWrV-31">
          <mxGeometry x="323.5" y="172.26000000000005" width="36" height="90" as="geometry" />
        </mxCell>
        <mxCell id="g0c-RjGzhL_h2LVNaWrV-23" value="" style="verticalLabelPosition=bottom;html=1;verticalAlign=top;strokeWidth=1;align=center;outlineConnect=0;dashed=0;outlineConnect=0;shape=mxgraph.aws3d.mobile_worker;aspect=fixed;strokeColor=none;fillColor=#777777;" vertex="1" parent="g0c-RjGzhL_h2LVNaWrV-31">
          <mxGeometry x="373.5" y="202.26000000000005" width="36" height="90" as="geometry" />
        </mxCell>
        <mxCell id="g0c-RjGzhL_h2LVNaWrV-24" value="" style="verticalLabelPosition=bottom;html=1;verticalAlign=top;strokeWidth=1;align=center;outlineConnect=0;dashed=0;outlineConnect=0;shape=mxgraph.aws3d.mobile_worker;aspect=fixed;strokeColor=none;fillColor=#777777;" vertex="1" parent="g0c-RjGzhL_h2LVNaWrV-31">
          <mxGeometry x="423.5" y="230.26" width="36" height="90" as="geometry" />
        </mxCell>
        <mxCell id="g0c-RjGzhL_h2LVNaWrV-25" value="" style="verticalLabelPosition=bottom;html=1;verticalAlign=top;strokeWidth=1;align=center;outlineConnect=0;dashed=0;outlineConnect=0;shape=mxgraph.aws3d.end_user;strokeColor=none;fillColor=#777777;aspect=fixed;" vertex="1" parent="g0c-RjGzhL_h2LVNaWrV-31">
          <mxGeometry x="253.5" y="129.8" width="49" height="100.46" as="geometry" />
        </mxCell>
        <mxCell id="g0c-RjGzhL_h2LVNaWrV-26" value="" style="verticalLabelPosition=bottom;html=1;verticalAlign=top;strokeWidth=1;dashed=0;shape=mxgraph.aws3d.dashedArrowlessEdge;fillColor=#000000;aspect=fixed;rounded=1;shadow=0;comic=0;fontFamily=Verdana;fontSize=12;fontColor=#000000;flipV=1;" vertex="1" parent="g0c-RjGzhL_h2LVNaWrV-31">
          <mxGeometry y="44.299999999999955" width="248" height="141" as="geometry" />
        </mxCell>
        <mxCell id="g0c-RjGzhL_h2LVNaWrV-27" value="" style="verticalLabelPosition=bottom;html=1;verticalAlign=top;strokeWidth=1;dashed=0;shape=mxgraph.aws3d.dashedArrowlessEdge;fillColor=#000000;aspect=fixed;rounded=1;shadow=0;comic=0;fontFamily=Verdana;fontSize=12;fontColor=#000000;flipV=1;" vertex="1" parent="g0c-RjGzhL_h2LVNaWrV-31">
          <mxGeometry x="373.5" y="259.79999999999995" width="248" height="141" as="geometry" />
        </mxCell>
        <mxCell id="g0c-RjGzhL_h2LVNaWrV-28" value="" style="verticalLabelPosition=bottom;html=1;verticalAlign=top;strokeWidth=1;dashed=0;shape=mxgraph.aws3d.dashedArrowlessEdge;aspect=fixed;rounded=1;shadow=0;comic=0;fontFamily=Verdana;fontSize=12" vertex="1" parent="g0c-RjGzhL_h2LVNaWrV-31">
          <mxGeometry y="189.90000000000003" width="368.36" height="209.9" as="geometry" />
        </mxCell>
        <mxCell id="g0c-RjGzhL_h2LVNaWrV-29" value="" style="verticalLabelPosition=bottom;html=1;verticalAlign=top;strokeWidth=1;dashed=0;shape=mxgraph.aws3d.dashedArrowlessEdge;aspect=fixed;rounded=1;shadow=0;comic=0;fontFamily=Verdana;fontSize=12" vertex="1" parent="g0c-RjGzhL_h2LVNaWrV-31">
          <mxGeometry x="248" y="39.80000000000001" width="368.53" height="210" as="geometry" />
        </mxCell>
        <mxCell id="g0c-RjGzhL_h2LVNaWrV-30" value="" style="verticalLabelPosition=bottom;html=1;verticalAlign=top;strokeWidth=1;align=center;outlineConnect=0;dashed=0;outlineConnect=0;shape=mxgraph.aws3d.cloudfront;fillColor=#ECECEC;strokeColor=#5E5E5E;aspect=fixed;" vertex="1" parent="g0c-RjGzhL_h2LVNaWrV-31">
          <mxGeometry x="137.5" width="103.8" height="169.79999999999998" as="geometry" />
        </mxCell>
        <mxCell id="g0c-RjGzhL_h2LVNaWrV-40" value="" style="verticalLabelPosition=bottom;html=1;verticalAlign=top;strokeWidth=1;align=center;outlineConnect=0;dashed=0;outlineConnect=0;shape=mxgraph.aws3d.arrowSW;fillColor=#000000;aspect=fixed;" vertex="1" parent="g0c-RjGzhL_h2LVNaWrV-31">
          <mxGeometry x="20" y="159" width="144.78" height="82.73" as="geometry" />
        </mxCell>
        <mxCell id="g0c-RjGzhL_h2LVNaWrV-41" value="" style="verticalLabelPosition=bottom;html=1;verticalAlign=top;strokeWidth=1;align=center;outlineConnect=0;dashed=0;outlineConnect=0;shape=mxgraph.aws3d.customerGateway;fillColor=#ECECEC;strokeColor=#5E5E5E;aspect=fixed;flipH=1;" vertex="1" parent="g0c-RjGzhL_h2LVNaWrV-31">
          <mxGeometry x="-80" y="217.46000000000004" width="116.7" height="102.8" as="geometry" />
        </mxCell>
        <mxCell id="g0c-RjGzhL_h2LVNaWrV-46" value="" style="edgeStyle=isometricEdgeStyle;endArrow=none;html=1;labelBackgroundColor=none;strokeWidth=4;fontFamily=Verdana;fontSize=12;exitX=0.26;exitY=0.746;exitDx=0;exitDy=0;exitPerimeter=0;strokeColor=#006600;" edge="1" parent="g0c-RjGzhL_h2LVNaWrV-31" source="g0c-RjGzhL_h2LVNaWrV-45">
          <mxGeometry width="50" height="100" relative="1" as="geometry">
            <mxPoint x="-88.75999999999999" y="234.79999999999995" as="sourcePoint" />
            <mxPoint x="-178.76" y="-5.2000000000000455" as="targetPoint" />
            <Array as="points" />
          </mxGeometry>
        </mxCell>
        <mxCell id="1a8abee3a6cfdf20-2" value="" style="verticalLabelPosition=bottom;html=1;verticalAlign=top;strokeWidth=1;dashed=0;shape=mxgraph.aws3d.secureConnection;fillColor=#000000;strokeColor=#ffffff;aspect=fixed;rounded=1;shadow=0;comic=0;fontSize=12" vertex="1" parent="g0c-RjGzhL_h2LVNaWrV-31">
          <mxGeometry x="80.5" y="172.26" width="56.99999999999999" height="34" as="geometry" />
        </mxCell>
        <mxCell id="1a8abee3a6cfdf20-11" value="" style="verticalLabelPosition=bottom;html=1;verticalAlign=top;strokeWidth=1;dashed=0;shape=mxgraph.aws3d.internetGateway;fillColor=#ECECEC;strokeColor=#5E5E5E;aspect=fixed;rounded=1;shadow=0;comic=0;fontSize=12;flipH=1;flipV=0;" vertex="1" parent="g0c-RjGzhL_h2LVNaWrV-31">
          <mxGeometry x="118" y="340" width="116.7" height="102.8" as="geometry" />
        </mxCell>
        <mxCell id="d5ac148becb70bc-12" value="" style="verticalLabelPosition=bottom;html=1;verticalAlign=top;strokeWidth=1;dashed=0;shape=mxgraph.aws3d.dashedArrowlessEdge;aspect=fixed;rounded=1;shadow=0;comic=0;fontFamily=Verdana;fontSize=12;flipV=1;" vertex="1" parent="1">
          <mxGeometry x="550" y="920" width="999" height="569.71" as="geometry" />
        </mxCell>
        <mxCell id="d5ac148becb70bc-10" value="" style="verticalLabelPosition=bottom;html=1;verticalAlign=top;strokeWidth=1;dashed=0;shape=mxgraph.aws3d.dashedArrowlessEdge;fillColor=#000000;aspect=fixed;rounded=1;shadow=0;comic=0;fontFamily=Verdana;fontSize=12;fontColor=#000000;flipV=1;" vertex="1" parent="1">
          <mxGeometry x="-30" y="587" width="1002" height="569.67" as="geometry" />
        </mxCell>
        <mxCell id="g0c-RjGzhL_h2LVNaWrV-35" value="" style="verticalLabelPosition=bottom;html=1;verticalAlign=top;strokeWidth=1;align=center;outlineConnect=0;dashed=0;outlineConnect=0;shape=mxgraph.aws3d.spot2;fillColor=#006600;strokeColor=none;aspect=fixed;opacity=3;" vertex="1" parent="1">
          <mxGeometry x="1200" y="70" width="876.66" height="509.03" as="geometry" />
        </mxCell>
        <mxCell id="g0c-RjGzhL_h2LVNaWrV-32" value="" style="group" connectable="0" vertex="1" parent="1">
          <mxGeometry x="1400" y="70" width="790" height="471.78" as="geometry" />
        </mxCell>
        <mxCell id="g0c-RjGzhL_h2LVNaWrV-2" value="" style="verticalLabelPosition=bottom;html=1;verticalAlign=top;strokeWidth=1;align=center;outlineConnect=0;dashed=0;outlineConnect=0;shape=mxgraph.aws3d.mobile_worker;aspect=fixed;strokeColor=none;fillColor=#777777;" vertex="1" parent="g0c-RjGzhL_h2LVNaWrV-32">
          <mxGeometry x="323.5" y="172.26000000000005" width="36" height="90" as="geometry" />
        </mxCell>
        <mxCell id="g0c-RjGzhL_h2LVNaWrV-3" value="" style="verticalLabelPosition=bottom;html=1;verticalAlign=top;strokeWidth=1;align=center;outlineConnect=0;dashed=0;outlineConnect=0;shape=mxgraph.aws3d.mobile_worker;aspect=fixed;strokeColor=none;fillColor=#777777;" vertex="1" parent="g0c-RjGzhL_h2LVNaWrV-32">
          <mxGeometry x="373.5" y="202.26000000000005" width="36" height="90" as="geometry" />
        </mxCell>
        <mxCell id="g0c-RjGzhL_h2LVNaWrV-4" value="" style="verticalLabelPosition=bottom;html=1;verticalAlign=top;strokeWidth=1;align=center;outlineConnect=0;dashed=0;outlineConnect=0;shape=mxgraph.aws3d.mobile_worker;aspect=fixed;strokeColor=none;fillColor=#777777;" vertex="1" parent="g0c-RjGzhL_h2LVNaWrV-32">
          <mxGeometry x="423.5" y="230.26000000000005" width="36" height="90" as="geometry" />
        </mxCell>
        <mxCell id="g0c-RjGzhL_h2LVNaWrV-6" value="" style="verticalLabelPosition=bottom;html=1;verticalAlign=top;strokeWidth=1;align=center;outlineConnect=0;dashed=0;outlineConnect=0;shape=mxgraph.aws3d.end_user;strokeColor=none;fillColor=#777777;aspect=fixed;" vertex="1" parent="g0c-RjGzhL_h2LVNaWrV-32">
          <mxGeometry x="253.5" y="129.8" width="49" height="100.46" as="geometry" />
        </mxCell>
        <mxCell id="g0c-RjGzhL_h2LVNaWrV-12" value="" style="verticalLabelPosition=bottom;html=1;verticalAlign=top;strokeWidth=1;dashed=0;shape=mxgraph.aws3d.dashedArrowlessEdge;fillColor=#000000;aspect=fixed;rounded=1;shadow=0;comic=0;fontFamily=Verdana;fontSize=12;fontColor=#000000;flipV=1;" vertex="1" parent="g0c-RjGzhL_h2LVNaWrV-32">
          <mxGeometry y="44.29999999999998" width="248" height="141" as="geometry" />
        </mxCell>
        <mxCell id="g0c-RjGzhL_h2LVNaWrV-13" value="" style="verticalLabelPosition=bottom;html=1;verticalAlign=top;strokeWidth=1;dashed=0;shape=mxgraph.aws3d.dashedArrowlessEdge;fillColor=#000000;aspect=fixed;rounded=1;shadow=0;comic=0;fontFamily=Verdana;fontSize=12;fontColor=#000000;flipV=1;" vertex="1" parent="g0c-RjGzhL_h2LVNaWrV-32">
          <mxGeometry x="373.5" y="259.8" width="248" height="141" as="geometry" />
        </mxCell>
        <mxCell id="g0c-RjGzhL_h2LVNaWrV-14" value="" style="verticalLabelPosition=bottom;html=1;verticalAlign=top;strokeWidth=1;dashed=0;shape=mxgraph.aws3d.dashedArrowlessEdge;aspect=fixed;rounded=1;shadow=0;comic=0;fontFamily=Verdana;fontSize=12" vertex="1" parent="g0c-RjGzhL_h2LVNaWrV-32">
          <mxGeometry y="189.90000000000003" width="368.36" height="209.9" as="geometry" />
        </mxCell>
        <mxCell id="g0c-RjGzhL_h2LVNaWrV-15" value="" style="verticalLabelPosition=bottom;html=1;verticalAlign=top;strokeWidth=1;dashed=0;shape=mxgraph.aws3d.dashedArrowlessEdge;aspect=fixed;rounded=1;shadow=0;comic=0;fontFamily=Verdana;fontSize=12" vertex="1" parent="g0c-RjGzhL_h2LVNaWrV-32">
          <mxGeometry x="248" y="39.80000000000001" width="368.53" height="210" as="geometry" />
        </mxCell>
        <mxCell id="g0c-RjGzhL_h2LVNaWrV-7" value="" style="verticalLabelPosition=bottom;html=1;verticalAlign=top;strokeWidth=1;align=center;outlineConnect=0;dashed=0;outlineConnect=0;shape=mxgraph.aws3d.cloudfront;fillColor=#ECECEC;strokeColor=#5E5E5E;aspect=fixed;" vertex="1" parent="g0c-RjGzhL_h2LVNaWrV-32">
          <mxGeometry x="137.5" width="103.8" height="169.79999999999998" as="geometry" />
        </mxCell>
        <mxCell id="g0c-RjGzhL_h2LVNaWrV-39" value="" style="verticalLabelPosition=bottom;html=1;verticalAlign=top;strokeWidth=1;align=center;outlineConnect=0;dashed=0;outlineConnect=0;shape=mxgraph.aws3d.arrowSW;fillColor=#000000;aspect=fixed;" vertex="1" parent="g0c-RjGzhL_h2LVNaWrV-32">
          <mxGeometry x="20" y="160" width="144.78" height="82.73" as="geometry" />
        </mxCell>
        <mxCell id="g0c-RjGzhL_h2LVNaWrV-34" value="" style="verticalLabelPosition=bottom;html=1;verticalAlign=top;strokeWidth=1;align=center;outlineConnect=0;dashed=0;outlineConnect=0;shape=mxgraph.aws3d.customerGateway;fillColor=#ECECEC;strokeColor=#5E5E5E;aspect=fixed;flipH=1;" vertex="1" parent="g0c-RjGzhL_h2LVNaWrV-32">
          <mxGeometry x="-80" y="217.46000000000004" width="116.7" height="102.8" as="geometry" />
        </mxCell>
        <mxCell id="g0c-RjGzhL_h2LVNaWrV-62" value="&lt;font style=&quot;font-size: 28px;&quot;&gt;&lt;b style=&quot;font-size: 28px;&quot;&gt;Bank1&lt;/b&gt;&lt;/font&gt;" style="text;html=1;align=center;verticalAlign=middle;whiteSpace=wrap;rounded=0;rotation=32;fontStyle=2;fontSize=28;horizontal=1;spacingTop=0;spacing=0;textShadow=0;labelBackgroundColor=none;labelBorderColor=none;" vertex="1" parent="g0c-RjGzhL_h2LVNaWrV-32">
          <mxGeometry x="246.0000000000001" y="68.89999999999995" width="64" height="32" as="geometry">
            <mxPoint as="offset" />
          </mxGeometry>
        </mxCell>
        <mxCell id="1a8abee3a6cfdf20-38" value="" style="verticalLabelPosition=bottom;html=1;verticalAlign=top;strokeWidth=1;dashed=0;shape=mxgraph.aws3d.flatDoubleEdge;fillColor=#000000;aspect=fixed;rounded=1;shadow=0;comic=0;fontFamily=Verdana;fontSize=12;flipV=1;" vertex="1" parent="1">
          <mxGeometry x="590" y="910.5" width="706.33" height="402.81" as="geometry" />
        </mxCell>
        <mxCell id="1a8abee3a6cfdf20-3" value="" style="edgeStyle=isometricEdgeStyle;endArrow=none;html=1;labelBackgroundColor=none;strokeWidth=4;fontFamily=Verdana;fontSize=12;exitX=0.669;exitY=0.618;exitDx=0;exitDy=0;exitPerimeter=0;" edge="1" parent="1" source="1a8abee3a6cfdf20-25">
          <mxGeometry width="50" height="100" relative="1" as="geometry">
            <mxPoint x="1130" y="630" as="sourcePoint" />
            <mxPoint x="1341.24" y="375.91999999999996" as="targetPoint" />
            <Array as="points" />
          </mxGeometry>
        </mxCell>
        <mxCell id="1a8abee3a6cfdf20-7" value="" style="verticalLabelPosition=bottom;html=1;verticalAlign=top;strokeWidth=1;dashed=0;shape=mxgraph.aws3d.workflowService;fillColor=#ECECEC;strokeColor=#5E5E5E;aspect=fixed;rounded=1;shadow=0;comic=0;fontSize=12" vertex="1" parent="1">
          <mxGeometry x="1730" y="1037" width="182.20000000000002" height="148.4" as="geometry" />
        </mxCell>
        <mxCell id="1a8abee3a6cfdf20-13" value="&lt;b&gt;&lt;font style=&quot;font-size: 20px;&quot;&gt;3. DB&lt;/font&gt;&lt;/b&gt;&lt;div&gt;&lt;b&gt;&lt;font style=&quot;font-size: 20px;&quot;&gt;PGSQL&lt;/font&gt;&lt;/b&gt;&lt;/div&gt;" style="verticalLabelPosition=bottom;html=1;verticalAlign=top;strokeWidth=1;dashed=0;shape=mxgraph.aws3d.simpleDb2;fillColor=#ECECEC;strokeColor=#5E5E5E;aspect=fixed;rounded=1;shadow=0;comic=0;fontSize=12" vertex="1" parent="1">
          <mxGeometry x="118.5" y="1015.61" width="181.5" height="192.6" as="geometry" />
        </mxCell>
        <mxCell id="1a8abee3a6cfdf20-14" value="" style="verticalLabelPosition=bottom;html=1;verticalAlign=top;strokeWidth=1;dashed=0;shape=mxgraph.aws3d.snapshot;fillColor=#4286c5;strokeColor=#57A2D8;aspect=fixed;rounded=1;shadow=0;comic=0;fontSize=12" vertex="1" parent="1">
          <mxGeometry x="1148" y="940" width="92" height="60" as="geometry" />
        </mxCell>
        <mxCell id="1a8abee3a6cfdf20-19" value="&lt;font style=&quot;font-size: 22px;&quot;&gt;&lt;b&gt;CORE&lt;br&gt;PAYGATE&lt;/b&gt;&lt;/font&gt;" style="verticalLabelPosition=bottom;html=1;verticalAlign=top;strokeWidth=1;dashed=0;shape=mxgraph.aws3d.elasticBeanstalk;fillColor=#ECECEC;strokeColor=#5E5E5E;aspect=fixed;rounded=1;shadow=0;comic=0;fontSize=12" vertex="1" parent="1">
          <mxGeometry x="966" y="1313.31" width="182" height="140" as="geometry" />
        </mxCell>
        <mxCell id="1a8abee3a6cfdf20-1" value="" style="verticalLabelPosition=bottom;html=1;verticalAlign=top;strokeWidth=1;dashed=0;shape=mxgraph.aws3d.secureConnection;fillColor=#000000;strokeColor=#ffffff;aspect=fixed;rounded=1;shadow=0;comic=0;fontSize=12" vertex="1" parent="1">
          <mxGeometry x="1492" y="239.12" width="56.99999999999999" height="34" as="geometry" />
        </mxCell>
        <mxCell id="1a8abee3a6cfdf20-33" value="" style="verticalLabelPosition=bottom;html=1;verticalAlign=top;strokeWidth=1;dashed=0;shape=mxgraph.aws3d.arrowSE;fillColor=#000000;aspect=fixed;rounded=1;shadow=0;comic=0;fontFamily=Verdana;fontSize=12;" vertex="1" parent="1">
          <mxGeometry x="919" y="809.88" width="211.41" height="120.12" as="geometry" />
        </mxCell>
        <mxCell id="1a8abee3a6cfdf20-39" value="" style="verticalLabelPosition=bottom;html=1;verticalAlign=top;strokeWidth=1;dashed=0;shape=mxgraph.aws3d.arrowSE;fillColor=#000000;aspect=fixed;rounded=1;shadow=0;comic=0;fontFamily=Verdana;fontSize=12" vertex="1" parent="1">
          <mxGeometry x="1144.71" y="1444" width="119.59" height="68" as="geometry" />
        </mxCell>
        <mxCell id="d5ac148becb70bc-1" value="" style="verticalLabelPosition=bottom;html=1;verticalAlign=top;strokeWidth=1;dashed=0;shape=mxgraph.aws3d.arrowSE;fillColor=#000000;aspect=fixed;rounded=1;shadow=0;comic=0;fontFamily=Verdana;fontSize=12" vertex="1" parent="1">
          <mxGeometry x="1606" y="1323.5" width="99.75" height="56.5" as="geometry" />
        </mxCell>
        <mxCell id="d5ac148becb70bc-2" value="" style="verticalLabelPosition=bottom;html=1;verticalAlign=top;strokeWidth=1;dashed=0;shape=mxgraph.aws3d.snapshot;fillColor=#4286c5;strokeColor=#57A2D8;aspect=fixed;rounded=1;shadow=0;comic=0;fontFamily=Verdana;fontSize=12" vertex="1" parent="1">
          <mxGeometry x="1090" y="972" width="92" height="60" as="geometry" />
        </mxCell>
        <mxCell id="d5ac148becb70bc-8" value="" style="verticalLabelPosition=bottom;html=1;verticalAlign=top;strokeWidth=1;dashed=0;shape=mxgraph.aws3d.dashedArrowlessEdge;aspect=fixed;rounded=1;shadow=0;comic=0;fontFamily=Verdana;fontSize=12" vertex="1" parent="1">
          <mxGeometry x="972" y="587" width="584.4" height="333" as="geometry" />
        </mxCell>
        <mxCell id="d5ac148becb70bc-9" value="" style="verticalLabelPosition=bottom;html=1;verticalAlign=top;strokeWidth=1;dashed=0;shape=mxgraph.aws3d.dashedArrowlessEdge;aspect=fixed;rounded=1;shadow=0;comic=0;fontFamily=Verdana;fontSize=12" vertex="1" parent="1">
          <mxGeometry x="-30" y="1160" width="574" height="327.08" as="geometry" />
        </mxCell>
        <mxCell id="d5ac148becb70bc-15" value="" style="verticalLabelPosition=bottom;html=1;verticalAlign=top;strokeWidth=1;dashed=0;shape=mxgraph.aws3d.arrowhead;aspect=fixed;rounded=1;shadow=0;comic=0;fillColor=none;fontFamily=Verdana;fontSize=12;fontColor=#000000;flipV=1;strokeColor=#006600;" vertex="1" parent="1">
          <mxGeometry x="1226" y="658" width="39" height="23" as="geometry" />
        </mxCell>
        <mxCell id="g0c-RjGzhL_h2LVNaWrV-44" value="" style="group" connectable="0" vertex="1" parent="1">
          <mxGeometry x="1850" y="1208.21" width="123" height="142" as="geometry" />
        </mxCell>
        <mxCell id="1a8abee3a6cfdf20-22" value="&lt;font style=&quot;font-size: 22px;&quot;&gt;&lt;b&gt;Banners&lt;/b&gt;&lt;/font&gt;" style="verticalLabelPosition=bottom;html=1;verticalAlign=top;strokeWidth=1;dashed=0;shape=mxgraph.aws3d.dataCenter;fillColor=#ffffff;strokeColor=#5E5E5E;aspect=fixed;rounded=1;shadow=0;comic=0;fontSize=12" vertex="1" parent="g0c-RjGzhL_h2LVNaWrV-44">
          <mxGeometry width="123" height="142" as="geometry" />
        </mxCell>
        <mxCell id="1a8abee3a6cfdf20-23" value="" style="verticalLabelPosition=bottom;html=1;verticalAlign=top;strokeWidth=1;dashed=0;shape=mxgraph.aws3d.application2;fillColor=#86E83A;strokeColor=#B0F373;aspect=fixed;rounded=1;shadow=0;comic=0;fontSize=12" vertex="1" parent="g0c-RjGzhL_h2LVNaWrV-44">
          <mxGeometry x="31" y="3" width="62" height="53" as="geometry" />
        </mxCell>
        <mxCell id="g0c-RjGzhL_h2LVNaWrV-56" value="&lt;b style=&quot;font-size: 20px;&quot;&gt;Bank2&lt;br&gt;service&lt;/b&gt;" style="verticalLabelPosition=bottom;html=1;verticalAlign=top;strokeWidth=1;dashed=0;shape=mxgraph.aws3d.application_server;fillColor=#f5f5f5;strokeColor=#666666;aspect=fixed;rounded=1;shadow=0;comic=0;fontSize=12;gradientColor=none;" vertex="1" parent="1">
          <mxGeometry x="678" y="765" width="123" height="124" as="geometry" />
        </mxCell>
        <mxCell id="g0c-RjGzhL_h2LVNaWrV-67" value="&lt;b&gt;&lt;font style=&quot;font-size: 22px;&quot;&gt;Scheduler&lt;/font&gt;&lt;/b&gt;&amp;nbsp;" style="verticalLabelPosition=bottom;html=1;verticalAlign=top;strokeWidth=1;align=center;outlineConnect=0;dashed=0;outlineConnect=0;shape=mxgraph.aws3d.worker;fillColor=#ECECEC;strokeColor=#5E5E5E;aspect=fixed;" vertex="1" parent="1">
          <mxGeometry x="329.99999999999994" y="1212" width="133.2" height="90" as="geometry" />
        </mxCell>
        <mxCell id="1a8abee3a6cfdf20-25" value="" style="verticalLabelPosition=bottom;html=1;verticalAlign=top;strokeWidth=1;dashed=0;shape=mxgraph.aws3d.arrowhead;aspect=fixed;rounded=1;shadow=0;comic=0;fillColor=none;fontFamily=Verdana;fontSize=12;fontColor=#000000;flipV=1;" vertex="1" parent="1">
          <mxGeometry x="1130" y="607.36" width="39" height="23" as="geometry" />
        </mxCell>
        <mxCell id="g0c-RjGzhL_h2LVNaWrV-78" value="" style="edgeStyle=isometricEdgeStyle;endArrow=none;html=1;labelBackgroundColor=none;strokeWidth=5;fontFamily=Verdana;fontSize=12" edge="1" parent="1">
          <mxGeometry width="50" height="100" relative="1" as="geometry">
            <mxPoint x="1340" y="730" as="sourcePoint" />
            <mxPoint x="1830" y="670" as="targetPoint" />
            <Array as="points">
              <mxPoint x="1520" y="660" />
            </Array>
          </mxGeometry>
        </mxCell>
        <mxCell id="g0c-RjGzhL_h2LVNaWrV-80" value="" style="edgeStyle=isometricEdgeStyle;endArrow=none;html=1;labelBackgroundColor=none;strokeWidth=5;fontFamily=Verdana;fontSize=12" edge="1" parent="1">
          <mxGeometry width="50" height="100" relative="1" as="geometry">
            <mxPoint x="1324" y="739.02" as="sourcePoint" />
            <mxPoint x="1320" y="740.7583302491976" as="targetPoint" />
            <Array as="points" />
          </mxGeometry>
        </mxCell>
        <mxCell id="g0c-RjGzhL_h2LVNaWrV-81" value="" style="verticalLabelPosition=bottom;html=1;verticalAlign=top;strokeWidth=1;dashed=0;shape=mxgraph.aws3d.arrowhead;aspect=fixed;rounded=1;shadow=0;comic=0;fillColor=none;fontFamily=Verdana;fontSize=12;fontColor=#000000;flipV=1;" vertex="1" parent="1">
          <mxGeometry x="1321.5" y="718" width="39" height="23" as="geometry" />
        </mxCell>
        <mxCell id="g0c-RjGzhL_h2LVNaWrV-83" value="System Bus" style="text;html=1;align=center;verticalAlign=middle;whiteSpace=wrap;rounded=0;fontSize=26;fontStyle=3;rotation=-30;" vertex="1" parent="1">
          <mxGeometry x="930" y="1100" width="220" height="60" as="geometry" />
        </mxCell>
        <mxCell id="g0c-RjGzhL_h2LVNaWrV-89" value="" style="verticalLabelPosition=bottom;html=1;verticalAlign=top;strokeWidth=1;dashed=0;shape=mxgraph.aws3d.snapshot;fillColor=#4286c5;strokeColor=#57A2D8;aspect=fixed;rounded=1;shadow=0;comic=0;fontSize=12" vertex="1" parent="1">
          <mxGeometry x="1033" y="1005" width="92" height="60" as="geometry" />
        </mxCell>
        <mxCell id="g0c-RjGzhL_h2LVNaWrV-90" value="" style="verticalLabelPosition=bottom;html=1;verticalAlign=top;strokeWidth=1;dashed=0;shape=mxgraph.aws3d.snapshot;fillColor=#4286c5;strokeColor=#57A2D8;aspect=fixed;rounded=1;shadow=0;comic=0;fontFamily=Verdana;fontSize=12" vertex="1" parent="1">
          <mxGeometry x="975" y="1037" width="92" height="60" as="geometry" />
        </mxCell>
        <mxCell id="g0c-RjGzhL_h2LVNaWrV-91" value="" style="verticalLabelPosition=bottom;html=1;verticalAlign=top;strokeWidth=1;dashed=0;shape=mxgraph.aws3d.snapshot;fillColor=#4286c5;strokeColor=#57A2D8;aspect=fixed;rounded=1;shadow=0;comic=0;fontFamily=Verdana;fontSize=12" vertex="1" parent="1">
          <mxGeometry x="919" y="1071.07" width="92" height="60" as="geometry" />
        </mxCell>
        <mxCell id="g0c-RjGzhL_h2LVNaWrV-92" value="" style="verticalLabelPosition=bottom;html=1;verticalAlign=top;strokeWidth=1;dashed=0;shape=mxgraph.aws3d.snapshot;fillColor=#4286c5;strokeColor=#57A2D8;aspect=fixed;rounded=1;shadow=0;comic=0;fontSize=12" vertex="1" parent="1">
          <mxGeometry x="862" y="1104.07" width="92" height="60" as="geometry" />
        </mxCell>
        <mxCell id="g0c-RjGzhL_h2LVNaWrV-93" value="" style="verticalLabelPosition=bottom;html=1;verticalAlign=top;strokeWidth=1;dashed=0;shape=mxgraph.aws3d.snapshot;fillColor=#4286c5;strokeColor=#57A2D8;aspect=fixed;rounded=1;shadow=0;comic=0;fontFamily=Verdana;fontSize=12" vertex="1" parent="1">
          <mxGeometry x="804" y="1136.07" width="92" height="60" as="geometry" />
        </mxCell>
        <mxCell id="g0c-RjGzhL_h2LVNaWrV-94" value="&lt;font style=&quot;font-size: 22px;&quot;&gt;&lt;b&gt;Logging service&lt;/b&gt;&lt;/font&gt;" style="verticalLabelPosition=bottom;html=1;verticalAlign=top;strokeWidth=1;align=center;outlineConnect=0;dashed=0;outlineConnect=0;shape=mxgraph.aws3d.dataServer;strokeColor=#5E5E5E;aspect=fixed;" vertex="1" parent="1">
          <mxGeometry x="470" y="1288.75" width="146.21" height="126" as="geometry" />
        </mxCell>
        <mxCell id="g0c-RjGzhL_h2LVNaWrV-98" value="" style="verticalLabelPosition=bottom;html=1;verticalAlign=top;strokeWidth=1;dashed=0;shape=mxgraph.aws3d.arrowSE;fillColor=#000000;aspect=fixed;rounded=1;shadow=0;comic=0;fontFamily=Verdana;fontSize=12;flipV=1;flipH=1;" vertex="1" parent="1">
          <mxGeometry x="913" y="805.88" width="211.41" height="120.12" as="geometry" />
        </mxCell>
        <mxCell id="g0c-RjGzhL_h2LVNaWrV-102" value="&lt;font style=&quot;font-size: 22px;&quot;&gt;&lt;b&gt;CDN&lt;/b&gt;&lt;/font&gt;" style="verticalLabelPosition=bottom;html=1;verticalAlign=top;strokeWidth=1;align=center;outlineConnect=0;dashed=0;outlineConnect=0;shape=mxgraph.aws3d.dataCenter;strokeColor=#5E5E5E;aspect=fixed;" vertex="1" parent="1">
          <mxGeometry x="1710" y="1302" width="123" height="142" as="geometry" />
        </mxCell>
        <mxCell id="g0c-RjGzhL_h2LVNaWrV-107" value="" style="verticalLabelPosition=bottom;html=1;verticalAlign=top;strokeWidth=1;dashed=0;shape=mxgraph.aws3d.secureConnection;fillColor=#000000;strokeColor=#ffffff;aspect=fixed;rounded=1;shadow=0;comic=0;fontSize=12" vertex="1" parent="1">
          <mxGeometry x="1176" y="571" width="56.99999999999999" height="34" as="geometry" />
        </mxCell>
        <mxCell id="g0c-RjGzhL_h2LVNaWrV-108" value="" style="verticalLabelPosition=bottom;html=1;verticalAlign=top;strokeWidth=1;dashed=0;shape=mxgraph.aws3d.secureConnection;fillColor=#000000;strokeColor=#ffffff;aspect=fixed;rounded=1;shadow=0;comic=0;fontSize=12" vertex="1" parent="1">
          <mxGeometry x="1361" y="685" width="56.99999999999999" height="34" as="geometry" />
        </mxCell>
        <mxCell id="g0c-RjGzhL_h2LVNaWrV-112" value="" style="group" connectable="0" vertex="1" parent="1">
          <mxGeometry x="490" y="850" width="360" height="249.92000000000002" as="geometry" />
        </mxCell>
        <mxCell id="g0c-RjGzhL_h2LVNaWrV-101" value="" style="verticalLabelPosition=bottom;html=1;verticalAlign=top;strokeWidth=1;dashed=0;shape=mxgraph.aws3d.application_server;fillColor=#fff2cc;strokeColor=#d6b656;aspect=fixed;rounded=1;shadow=0;comic=0;fontSize=12;gradientColor=none;" vertex="1" parent="g0c-RjGzhL_h2LVNaWrV-112">
          <mxGeometry x="53.75" width="91.26" height="92" as="geometry" />
        </mxCell>
        <mxCell id="g0c-RjGzhL_h2LVNaWrV-109" value="" style="verticalLabelPosition=bottom;html=1;verticalAlign=top;strokeWidth=1;dashed=0;shape=mxgraph.aws3d.application_server;fillColor=#fff2cc;strokeColor=#d6b656;aspect=fixed;rounded=1;shadow=0;comic=0;fontSize=12;gradientColor=none;" vertex="1" parent="g0c-RjGzhL_h2LVNaWrV-112">
          <mxGeometry x="105.75" y="31" width="91.26" height="92" as="geometry" />
        </mxCell>
        <mxCell id="g0c-RjGzhL_h2LVNaWrV-110" value="" style="verticalLabelPosition=bottom;html=1;verticalAlign=top;strokeWidth=1;dashed=0;shape=mxgraph.aws3d.application_server;fillColor=#fff2cc;strokeColor=#d6b656;aspect=fixed;rounded=1;shadow=0;comic=0;fontSize=12;gradientColor=none;" vertex="1" parent="g0c-RjGzhL_h2LVNaWrV-112">
          <mxGeometry y="31" width="91.26" height="92" as="geometry" />
        </mxCell>
        <mxCell id="g0c-RjGzhL_h2LVNaWrV-111" value="&lt;span style=&quot;font-size: 20px;&quot;&gt;&lt;b&gt;CARDS&lt;br&gt;service&lt;/b&gt;&lt;/span&gt;" style="verticalLabelPosition=bottom;html=1;verticalAlign=top;strokeWidth=1;dashed=0;shape=mxgraph.aws3d.application_server;fillColor=#fff2cc;strokeColor=#d6b656;aspect=fixed;rounded=1;shadow=0;comic=0;fontSize=12;gradientColor=none;" vertex="1" parent="g0c-RjGzhL_h2LVNaWrV-112">
          <mxGeometry x="52" y="62" width="91.26" height="92" as="geometry" />
        </mxCell>
        <mxCell id="g0c-RjGzhL_h2LVNaWrV-113" value="" style="group" connectable="0" vertex="1" parent="1">
          <mxGeometry x="326" y="950" width="197.01" height="154" as="geometry" />
        </mxCell>
        <mxCell id="g0c-RjGzhL_h2LVNaWrV-114" value="" style="verticalLabelPosition=bottom;html=1;verticalAlign=top;strokeWidth=1;dashed=0;shape=mxgraph.aws3d.application_server;fillColor=#fff2cc;strokeColor=#d6b656;aspect=fixed;rounded=1;shadow=0;comic=0;fontSize=12;gradientColor=none;" vertex="1" parent="g0c-RjGzhL_h2LVNaWrV-113">
          <mxGeometry x="53.75" width="91.26" height="92" as="geometry" />
        </mxCell>
        <mxCell id="g0c-RjGzhL_h2LVNaWrV-115" value="" style="verticalLabelPosition=bottom;html=1;verticalAlign=top;strokeWidth=1;dashed=0;shape=mxgraph.aws3d.application_server;fillColor=#fff2cc;strokeColor=#d6b656;aspect=fixed;rounded=1;shadow=0;comic=0;fontSize=12;gradientColor=none;" vertex="1" parent="g0c-RjGzhL_h2LVNaWrV-113">
          <mxGeometry x="105.75" y="31" width="91.26" height="92" as="geometry" />
        </mxCell>
        <mxCell id="g0c-RjGzhL_h2LVNaWrV-116" value="" style="verticalLabelPosition=bottom;html=1;verticalAlign=top;strokeWidth=1;dashed=0;shape=mxgraph.aws3d.application_server;fillColor=#fff2cc;strokeColor=#d6b656;aspect=fixed;rounded=1;shadow=0;comic=0;fontSize=12;gradientColor=none;" vertex="1" parent="g0c-RjGzhL_h2LVNaWrV-113">
          <mxGeometry y="31" width="91.26" height="92" as="geometry" />
        </mxCell>
        <mxCell id="g0c-RjGzhL_h2LVNaWrV-117" value="&lt;span style=&quot;font-size: 20px;&quot;&gt;&lt;b&gt;PAYMENTS&lt;br&gt;service&lt;/b&gt;&lt;/span&gt;" style="verticalLabelPosition=bottom;html=1;verticalAlign=top;strokeWidth=1;dashed=0;shape=mxgraph.aws3d.application_server;fillColor=#fff2cc;strokeColor=#d6b656;aspect=fixed;rounded=1;shadow=0;comic=0;fontSize=12;gradientColor=none;" vertex="1" parent="g0c-RjGzhL_h2LVNaWrV-113">
          <mxGeometry x="52" y="62" width="91.26" height="92" as="geometry" />
        </mxCell>
        <mxCell id="g0c-RjGzhL_h2LVNaWrV-49" value="&lt;font style=&quot;font-size: 20px;&quot;&gt;&lt;b&gt;Bank1&lt;br&gt;service&lt;/b&gt;&lt;/font&gt;" style="verticalLabelPosition=bottom;html=1;verticalAlign=top;strokeWidth=1;dashed=0;shape=mxgraph.aws3d.application_server;fillColor=#f5f5f5;strokeColor=#666666;aspect=fixed;rounded=1;shadow=0;comic=0;fontSize=12;gradientColor=none;" vertex="1" parent="1">
          <mxGeometry x="809" y="684.9500000000002" width="123" height="124" as="geometry" />
        </mxCell>
        <mxCell id="g0c-RjGzhL_h2LVNaWrV-118" value="&lt;font style=&quot;font-size: 22px;&quot;&gt;&lt;b&gt;ClickHouse&lt;/b&gt;&lt;/font&gt;" style="verticalLabelPosition=bottom;html=1;verticalAlign=top;strokeWidth=1;align=center;outlineConnect=0;dashed=0;outlineConnect=0;shape=mxgraph.aws3d.simpleDb;fillColor=#ECECEC;strokeColor=#5E5E5E;aspect=fixed;" vertex="1" parent="1">
          <mxGeometry x="-70" y="1208.21" width="123" height="133" as="geometry" />
        </mxCell>
        <mxCell id="g0c-RjGzhL_h2LVNaWrV-121" value="" style="group" connectable="0" vertex="1" parent="1">
          <mxGeometry x="780" y="880" width="219.61" height="125.11999999999989" as="geometry" />
        </mxCell>
        <mxCell id="g0c-RjGzhL_h2LVNaWrV-122" value="" style="verticalLabelPosition=bottom;html=1;verticalAlign=top;strokeWidth=1;dashed=0;shape=mxgraph.aws3d.arrowSE;fillColor=#000000;aspect=fixed;rounded=1;shadow=0;comic=0;fontFamily=Verdana;fontSize=12;" vertex="1" parent="g0c-RjGzhL_h2LVNaWrV-121">
          <mxGeometry x="8.200000000000045" y="5" width="211.41" height="120.12" as="geometry" />
        </mxCell>
        <mxCell id="g0c-RjGzhL_h2LVNaWrV-123" value="" style="verticalLabelPosition=bottom;html=1;verticalAlign=top;strokeWidth=1;dashed=0;shape=mxgraph.aws3d.arrowSE;fillColor=#000000;aspect=fixed;rounded=1;shadow=0;comic=0;fontFamily=Verdana;fontSize=12;flipV=1;flipH=1;" vertex="1" parent="g0c-RjGzhL_h2LVNaWrV-121">
          <mxGeometry width="211.41" height="120.12" as="geometry" />
        </mxCell>
        <mxCell id="g0c-RjGzhL_h2LVNaWrV-124" value="" style="group" connectable="0" vertex="1" parent="1">
          <mxGeometry x="484.39" y="1083.44" width="189.61" height="115.12" as="geometry" />
        </mxCell>
        <mxCell id="g0c-RjGzhL_h2LVNaWrV-125" value="" style="verticalLabelPosition=bottom;html=1;verticalAlign=top;strokeWidth=1;dashed=0;shape=mxgraph.aws3d.arrowSE;fillColor=#000000;aspect=fixed;rounded=1;shadow=0;comic=0;fontFamily=Verdana;fontSize=12;" vertex="1" parent="g0c-RjGzhL_h2LVNaWrV-124">
          <mxGeometry x="7.079832430217242" y="4.60038363171356" width="182.5301675697828" height="103.71091116069395" as="geometry" />
        </mxCell>
        <mxCell id="g0c-RjGzhL_h2LVNaWrV-126" value="" style="verticalLabelPosition=bottom;html=1;verticalAlign=top;strokeWidth=1;dashed=0;shape=mxgraph.aws3d.arrowSE;fillColor=#000000;aspect=fixed;rounded=1;shadow=0;comic=0;fontFamily=Verdana;fontSize=12;flipV=1;flipH=1;" vertex="1" parent="g0c-RjGzhL_h2LVNaWrV-124">
          <mxGeometry width="182.5301675697828" height="103.71091116069395" as="geometry" />
        </mxCell>
        <mxCell id="g0c-RjGzhL_h2LVNaWrV-127" value="" style="group" connectable="0" vertex="1" parent="1">
          <mxGeometry x="651" y="986" width="189.61" height="115.12" as="geometry" />
        </mxCell>
        <mxCell id="g0c-RjGzhL_h2LVNaWrV-128" value="" style="verticalLabelPosition=bottom;html=1;verticalAlign=top;strokeWidth=1;dashed=0;shape=mxgraph.aws3d.arrowSE;fillColor=#000000;aspect=fixed;rounded=1;shadow=0;comic=0;fontFamily=Verdana;fontSize=12;" vertex="1" parent="g0c-RjGzhL_h2LVNaWrV-127">
          <mxGeometry x="7.079832430217242" y="4.60038363171356" width="182.5301675697828" height="103.71091116069395" as="geometry" />
        </mxCell>
        <mxCell id="g0c-RjGzhL_h2LVNaWrV-129" value="" style="verticalLabelPosition=bottom;html=1;verticalAlign=top;strokeWidth=1;dashed=0;shape=mxgraph.aws3d.arrowSE;fillColor=#000000;aspect=fixed;rounded=1;shadow=0;comic=0;fontFamily=Verdana;fontSize=12;flipV=1;flipH=1;" vertex="1" parent="g0c-RjGzhL_h2LVNaWrV-127">
          <mxGeometry width="182.5301675697828" height="103.71091116069395" as="geometry" />
        </mxCell>
        <mxCell id="g0c-RjGzhL_h2LVNaWrV-130" value="" style="group" connectable="0" vertex="1" parent="1">
          <mxGeometry x="710" y="1420" width="294.6200000000001" height="204" as="geometry" />
        </mxCell>
        <mxCell id="1a8abee3a6cfdf20-15" value="" style="verticalLabelPosition=bottom;html=1;verticalAlign=top;strokeWidth=1;dashed=0;shape=mxgraph.aws3d.application_server;fillColor=#ECECEC;strokeColor=#5E5E5E;aspect=fixed;rounded=1;shadow=0;comic=0;fontSize=12" vertex="1" parent="g0c-RjGzhL_h2LVNaWrV-130">
          <mxGeometry x="70" width="123" height="124" as="geometry" />
        </mxCell>
        <mxCell id="1a8abee3a6cfdf20-16" value="" style="verticalLabelPosition=bottom;html=1;verticalAlign=top;strokeWidth=1;dashed=0;shape=mxgraph.aws3d.application_server;fillColor=#ECECEC;strokeColor=#5E5E5E;aspect=fixed;rounded=1;shadow=0;comic=0;fontSize=12" vertex="1" parent="g0c-RjGzhL_h2LVNaWrV-130">
          <mxGeometry y="40" width="123" height="124" as="geometry" />
        </mxCell>
        <mxCell id="1a8abee3a6cfdf20-17" value="" style="verticalLabelPosition=bottom;html=1;verticalAlign=top;strokeWidth=1;dashed=0;shape=mxgraph.aws3d.application_server;fillColor=#ECECEC;strokeColor=#5E5E5E;aspect=fixed;rounded=1;shadow=0;comic=0;fontSize=12" vertex="1" parent="g0c-RjGzhL_h2LVNaWrV-130">
          <mxGeometry x="140" y="40" width="123" height="124" as="geometry" />
        </mxCell>
        <mxCell id="1a8abee3a6cfdf20-18" value="&lt;font style=&quot;font-size: 22px;&quot;&gt;&lt;b&gt;Other servises&lt;/b&gt;&lt;/font&gt;" style="verticalLabelPosition=bottom;html=1;verticalAlign=top;strokeWidth=1;dashed=0;shape=mxgraph.aws3d.application_server;fillColor=#ECECEC;strokeColor=#5E5E5E;aspect=fixed;rounded=1;shadow=0;comic=0;fontSize=12" vertex="1" parent="g0c-RjGzhL_h2LVNaWrV-130">
          <mxGeometry x="70" y="80" width="123" height="124" as="geometry" />
        </mxCell>
        <mxCell id="g0c-RjGzhL_h2LVNaWrV-142" value="" style="verticalLabelPosition=bottom;html=1;verticalAlign=top;strokeWidth=1;dashed=0;shape=mxgraph.aws3d.arrowSW;fillColor=#000000;aspect=fixed;rounded=1;shadow=0;comic=0;fontFamily=Verdana;fontSize=12" vertex="1" parent="g0c-RjGzhL_h2LVNaWrV-130">
          <mxGeometry x="240.0000000000001" y="10" width="54.62" height="31.21" as="geometry" />
        </mxCell>
        <mxCell id="g0c-RjGzhL_h2LVNaWrV-131" value="&lt;font style=&quot;font-size: 22px;&quot;&gt;&lt;b&gt;MPM&lt;/b&gt;&lt;/font&gt;" style="verticalLabelPosition=bottom;html=1;verticalAlign=top;strokeWidth=1;align=center;outlineConnect=0;dashed=0;outlineConnect=0;shape=mxgraph.aws3d.instance;fillColor=#ECECEC;strokeColor=#5E5E5E;aspect=fixed;" vertex="1" parent="1">
          <mxGeometry x="1256.96" y="1500" width="161.04" height="127" as="geometry" />
        </mxCell>
        <mxCell id="g0c-RjGzhL_h2LVNaWrV-132" value="" style="verticalLabelPosition=bottom;html=1;verticalAlign=top;strokeWidth=1;dashed=0;shape=mxgraph.aws3d.arrowSW;fillColor=#000000;aspect=fixed;rounded=1;shadow=0;comic=0;fontFamily=Verdana;fontSize=12" vertex="1" parent="1">
          <mxGeometry x="1630" y="1170.85" width="119" height="68" as="geometry" />
        </mxCell>
        <mxCell id="g0c-RjGzhL_h2LVNaWrV-136" value="" style="edgeStyle=orthogonalEdgeStyle;rounded=0;orthogonalLoop=1;jettySize=auto;html=1;entryX=0.5;entryY=1;entryDx=0;entryDy=0;endArrow=none;endFill=0;strokeWidth=2;dashed=1;dashPattern=1 1;" edge="1" parent="1" source="g0c-RjGzhL_h2LVNaWrV-133" target="g0c-RjGzhL_h2LVNaWrV-137">
          <mxGeometry relative="1" as="geometry">
            <mxPoint x="972.5900000000001" y="422.57000000000016" as="targetPoint" />
          </mxGeometry>
        </mxCell>
        <mxCell id="g0c-RjGzhL_h2LVNaWrV-133" value="" style="verticalLabelPosition=bottom;html=1;verticalAlign=top;strokeWidth=1;align=center;outlineConnect=0;dashed=0;outlineConnect=0;shape=mxgraph.aws3d.securityTokenService;fillColor=#ECECEC;strokeColor=#5E5E5E;aspect=fixed;" vertex="1" parent="1">
          <mxGeometry x="900" y="550" width="145.18" height="154.86" as="geometry" />
        </mxCell>
        <mxCell id="g0c-RjGzhL_h2LVNaWrV-134" value="" style="group" connectable="0" vertex="1" parent="1">
          <mxGeometry x="984" y="662" width="146" height="90" as="geometry" />
        </mxCell>
        <mxCell id="g0c-RjGzhL_h2LVNaWrV-71" value="" style="verticalLabelPosition=bottom;html=1;verticalAlign=top;strokeWidth=1;align=center;outlineConnect=0;dashed=0;outlineConnect=0;shape=mxgraph.aws3d.ebs;fillColor=#ECECEC;strokeColor=#5E5E5E;aspect=fixed;" vertex="1" parent="g0c-RjGzhL_h2LVNaWrV-134">
          <mxGeometry width="92" height="60" as="geometry" />
        </mxCell>
        <mxCell id="g0c-RjGzhL_h2LVNaWrV-72" value="" style="verticalLabelPosition=bottom;html=1;verticalAlign=top;strokeWidth=1;align=center;outlineConnect=0;dashed=0;outlineConnect=0;shape=mxgraph.aws3d.ebs;fillColor=#ECECEC;strokeColor=#5E5E5E;aspect=fixed;" vertex="1" parent="g0c-RjGzhL_h2LVNaWrV-134">
          <mxGeometry x="54" y="30" width="92" height="60" as="geometry" />
        </mxCell>
        <mxCell id="g0c-RjGzhL_h2LVNaWrV-42" value="&lt;b style=&quot;font-size: 22px;&quot;&gt;&lt;font style=&quot;font-size: 22px;&quot;&gt;&lt;br&gt;1. Routing service&lt;/font&gt;&lt;/b&gt;" style="verticalLabelPosition=bottom;html=1;verticalAlign=top;strokeWidth=1;align=center;outlineConnect=0;dashed=0;outlineConnect=0;shape=mxgraph.aws3d.elasticLoadBalancing;fillColor=#ECECEC;strokeColor=#5E5E5E;aspect=fixed;" vertex="1" parent="1">
          <mxGeometry x="1064.52" y="660.86" width="175.48" height="168.17" as="geometry" />
        </mxCell>
        <mxCell id="g0c-RjGzhL_h2LVNaWrV-68" value="" style="group" connectable="0" vertex="1" parent="1">
          <mxGeometry x="1195" y="790" width="200" height="122" as="geometry" />
        </mxCell>
        <mxCell id="g0c-RjGzhL_h2LVNaWrV-58" value="" style="verticalLabelPosition=bottom;html=1;verticalAlign=top;strokeWidth=1;align=center;outlineConnect=0;dashed=0;outlineConnect=0;shape=mxgraph.aws3d.ebs;fillColor=#ECECEC;strokeColor=#5E5E5E;aspect=fixed;" vertex="1" parent="g0c-RjGzhL_h2LVNaWrV-68">
          <mxGeometry width="92" height="60" as="geometry" />
        </mxCell>
        <mxCell id="g0c-RjGzhL_h2LVNaWrV-59" value="" style="verticalLabelPosition=bottom;html=1;verticalAlign=top;strokeWidth=1;align=center;outlineConnect=0;dashed=0;outlineConnect=0;shape=mxgraph.aws3d.ebs;fillColor=#ECECEC;strokeColor=#5E5E5E;aspect=fixed;" vertex="1" parent="g0c-RjGzhL_h2LVNaWrV-68">
          <mxGeometry x="54" y="32" width="92" height="60" as="geometry" />
        </mxCell>
        <mxCell id="g0c-RjGzhL_h2LVNaWrV-60" value="" style="verticalLabelPosition=bottom;html=1;verticalAlign=top;strokeWidth=1;align=center;outlineConnect=0;dashed=0;outlineConnect=0;shape=mxgraph.aws3d.ebs;fillColor=#ECECEC;strokeColor=#5E5E5E;aspect=fixed;" vertex="1" parent="g0c-RjGzhL_h2LVNaWrV-68">
          <mxGeometry x="108" y="62" width="92" height="60" as="geometry" />
        </mxCell>
        <mxCell id="g0c-RjGzhL_h2LVNaWrV-137" value="&lt;font style=&quot;font-size: 22px;&quot;&gt;&lt;b&gt;AUTH&lt;/b&gt;&lt;/font&gt;" style="text;html=1;align=center;verticalAlign=middle;whiteSpace=wrap;rounded=0;" vertex="1" parent="1">
          <mxGeometry x="836" y="480" width="60" height="30" as="geometry" />
        </mxCell>
        <mxCell id="g0c-RjGzhL_h2LVNaWrV-138" value="" style="edgeStyle=isometricEdgeStyle;endArrow=none;html=1;labelBackgroundColor=none;strokeWidth=5;fontFamily=Verdana;fontSize=12;strokeColor=#006600;" edge="1" parent="1" source="1a8abee3a6cfdf20-7">
          <mxGeometry width="50" height="100" relative="1" as="geometry">
            <mxPoint x="1870" y="1037" as="sourcePoint" />
            <mxPoint x="2055.24" y="796.92" as="targetPoint" />
            <Array as="points">
              <mxPoint x="1980" y="940" />
            </Array>
          </mxGeometry>
        </mxCell>
        <mxCell id="g0c-RjGzhL_h2LVNaWrV-139" value="&lt;font style=&quot;font-size: 22px;&quot;&gt;&lt;b&gt;MOBILE CORE&lt;br&gt;PAYGATE&lt;/b&gt;&lt;/font&gt;" style="verticalLabelPosition=bottom;html=1;verticalAlign=top;strokeWidth=1;dashed=0;shape=mxgraph.aws3d.elasticBeanstalk;fillColor=#ECECEC;strokeColor=#5E5E5E;aspect=fixed;rounded=1;shadow=0;comic=0;fontSize=12" vertex="1" parent="1">
          <mxGeometry x="1148" y="1198.56" width="182" height="140" as="geometry" />
        </mxCell>
        <mxCell id="1a8abee3a6cfdf20-4" value="&lt;font style=&quot;font-size: 22px;&quot;&gt;&lt;b&gt;ELK&lt;/b&gt;&lt;/font&gt;" style="verticalLabelPosition=bottom;html=1;verticalAlign=top;strokeWidth=1;dashed=0;shape=mxgraph.aws3d.dynamoDb;fillColor=#ECECEC;strokeColor=#5E5E5E;aspect=fixed;rounded=1;shadow=0;comic=0;fontSize=12" vertex="1" parent="1">
          <mxGeometry x="260" y="1380" width="181.5" height="210" as="geometry" />
        </mxCell>
        <mxCell id="g0c-RjGzhL_h2LVNaWrV-140" value="&lt;font style=&quot;font-size: 15px;&quot;&gt;&lt;b&gt;Balance&lt;/b&gt;&lt;/font&gt;" style="verticalLabelPosition=bottom;html=1;verticalAlign=top;strokeWidth=1;align=center;outlineConnect=0;dashed=0;outlineConnect=0;shape=mxgraph.aws3d.file;aspect=fixed;strokeColor=#2d6195;fillColor=#ffffff;" vertex="1" parent="1">
          <mxGeometry x="1395" y="1540" width="30.8" height="70.6" as="geometry" />
        </mxCell>
        <mxCell id="g0c-RjGzhL_h2LVNaWrV-141" value="" style="verticalLabelPosition=bottom;html=1;verticalAlign=top;strokeWidth=1;dashed=0;shape=mxgraph.aws3d.arrowSW;fillColor=#000000;aspect=fixed;rounded=1;shadow=0;comic=0;fontFamily=Verdana;fontSize=12" vertex="1" parent="1">
          <mxGeometry x="1130.41" y="1314.39" width="54.62" height="31.21" as="geometry" />
        </mxCell>
        <mxCell id="g0c-RjGzhL_h2LVNaWrV-143" value="" style="edgeStyle=isometricEdgeStyle;endArrow=none;html=1;labelBackgroundColor=none;strokeWidth=5;fontFamily=Verdana;fontSize=12;exitX=0.835;exitY=0.225;exitDx=0;exitDy=0;exitPerimeter=0;" edge="1" parent="1" source="g0c-RjGzhL_h2LVNaWrV-139">
          <mxGeometry width="50" height="100" relative="1" as="geometry">
            <mxPoint x="1296.33" y="1218.03" as="sourcePoint" />
            <mxPoint x="1470" y="1220" as="targetPoint" />
            <Array as="points">
              <mxPoint x="1440" y="1200" />
            </Array>
          </mxGeometry>
        </mxCell>
        <mxCell id="d5ac148becb70bc-3" value="&lt;font face=&quot;Helvetica&quot; style=&quot;font-size: 22px;&quot;&gt;&lt;b style=&quot;&quot;&gt;Mobile&lt;br&gt;Platform&lt;/b&gt;&lt;/font&gt;" style="verticalLabelPosition=bottom;html=1;verticalAlign=top;strokeWidth=1;dashed=0;shape=mxgraph.aws3d.rdsMaster;fillColor=#ECECEC;strokeColor=#5E5E5E;aspect=fixed;rounded=1;shadow=0;comic=0;fontFamily=Verdana;fontSize=12" vertex="1" parent="1">
          <mxGeometry x="1492" y="1190.5" width="123" height="133" as="geometry" />
        </mxCell>
        <mxCell id="g0c-RjGzhL_h2LVNaWrV-146" value="" style="verticalLabelPosition=bottom;html=1;verticalAlign=top;strokeWidth=1;dashed=0;shape=mxgraph.aws3d.arrowhead;aspect=fixed;rounded=1;shadow=0;comic=0;fillColor=none;fontFamily=Verdana;fontSize=12;fontColor=#000000;flipV=1;" vertex="1" parent="1">
          <mxGeometry x="1297" y="1208.07" width="39" height="23" as="geometry" />
        </mxCell>
        <mxCell id="g0c-RjGzhL_h2LVNaWrV-148" value="" style="verticalLabelPosition=bottom;html=1;verticalAlign=top;strokeWidth=1;dashed=0;shape=mxgraph.aws3d.arrowSE;fillColor=#000000;aspect=fixed;rounded=1;shadow=0;comic=0;fontFamily=Verdana;fontSize=12;flipH=1;flipV=1;" vertex="1" parent="1">
          <mxGeometry x="1065.44" y="1156.6699999999998" width="119.59" height="68" as="geometry" />
        </mxCell>
        <mxCell id="g0c-RjGzhL_h2LVNaWrV-149" value="" style="verticalLabelPosition=bottom;html=1;verticalAlign=top;strokeWidth=1;dashed=0;shape=mxgraph.aws3d.arrowSE;fillColor=#000000;aspect=fixed;rounded=1;shadow=0;comic=0;fontFamily=Verdana;fontSize=12;flipH=1;flipV=1;" vertex="1" parent="1">
          <mxGeometry x="880.0200000000001" y="1270.56" width="119.59" height="68" as="geometry" />
        </mxCell>
        <mxCell id="g0c-RjGzhL_h2LVNaWrV-150" value="" style="verticalLabelPosition=bottom;html=1;verticalAlign=top;strokeWidth=1;dashed=0;shape=mxgraph.aws3d.arrowhead;aspect=fixed;rounded=1;shadow=0;comic=0;fillColor=none;fontFamily=Verdana;fontSize=12;fontColor=#000000;flipV=1;strokeColor=#006600;" vertex="1" parent="1">
          <mxGeometry x="1903" y="1041.44" width="39" height="23" as="geometry" />
        </mxCell>
        <mxCell id="DyWhcQnSESnu7o1HwAVG-1" value="" style="edgeStyle=isometricEdgeStyle;endArrow=none;html=1;labelBackgroundColor=none;strokeWidth=4;fontFamily=Verdana;fontSize=12;elbow=vertical;" edge="1" parent="1" target="g0c-RjGzhL_h2LVNaWrV-133">
          <mxGeometry width="50" height="100" relative="1" as="geometry">
            <mxPoint x="690" y="710" as="sourcePoint" />
            <mxPoint x="760" y="540" as="targetPoint" />
            <Array as="points">
              <mxPoint x="690" y="600" />
            </Array>
          </mxGeometry>
        </mxCell>
        <mxCell id="DyWhcQnSESnu7o1HwAVG-2" value="" style="verticalLabelPosition=bottom;html=1;verticalAlign=top;strokeWidth=1;dashed=0;shape=mxgraph.aws3d.arrowhead;aspect=fixed;rounded=1;shadow=0;comic=0;fillColor=none;fontFamily=Verdana;fontSize=12;fontColor=#000000;flipV=1;flipH=1;" vertex="1" parent="1">
          <mxGeometry x="865" y="564" width="39" height="23" as="geometry" />
        </mxCell>
        <mxCell id="DyWhcQnSESnu7o1HwAVG-5" value="" style="verticalLabelPosition=bottom;html=1;verticalAlign=top;strokeWidth=1;dashed=0;shape=mxgraph.aws3d.arrowhead;aspect=fixed;rounded=1;shadow=0;comic=0;fillColor=none;fontFamily=Verdana;fontSize=12;fontColor=#000000;flipV=1;flipH=1;" vertex="1" parent="1">
          <mxGeometry x="651.21" y="687.86" width="39" height="23" as="geometry" />
        </mxCell>
      </root>
    </mxGraphModel>
  </diagram>
</mxfile>
